<mxfile host="app.diagrams.net" agent="Mozilla/5.0 (Windows NT 10.0; Win64; x64) AppleWebKit/537.36 (KHTML, like Gecko) Chrome/140.0.0.0 Safari/537.36" version="28.2.5">
  <diagram name="1 oldal" id="URV7jQeZcxRBz37cJSlC">
    <mxGraphModel dx="1699" dy="465" grid="1" gridSize="10" guides="1" tooltips="1" connect="1" arrows="1" fold="1" page="1" pageScale="1" pageWidth="827" pageHeight="1169" math="0" shadow="0">
      <root>
        <mxCell id="0" />
        <mxCell id="1" parent="0" />
        <mxCell id="-NdqAoLyErQ-obfh3Xrd-1" value="DBO8MH_orarend" style="rounded=0;whiteSpace=wrap;html=1;" vertex="1" parent="1">
          <mxGeometry x="343.5" y="40" width="120" height="60" as="geometry" />
        </mxCell>
        <mxCell id="-NdqAoLyErQ-obfh3Xrd-3" value="ID" style="ellipse;whiteSpace=wrap;html=1;" vertex="1" parent="1">
          <mxGeometry x="-10" y="405" width="100" height="60" as="geometry" />
        </mxCell>
        <mxCell id="-NdqAoLyErQ-obfh3Xrd-9" value="ora" style="ellipse;whiteSpace=wrap;html=1;" vertex="1" parent="1">
          <mxGeometry x="110" y="405" width="100" height="60" as="geometry" />
        </mxCell>
        <mxCell id="-NdqAoLyErQ-obfh3Xrd-10" value="targy" style="ellipse;whiteSpace=wrap;html=1;" vertex="1" parent="1">
          <mxGeometry x="230" y="405" width="100" height="60" as="geometry" />
        </mxCell>
        <mxCell id="-NdqAoLyErQ-obfh3Xrd-42" style="edgeStyle=none;rounded=0;orthogonalLoop=1;jettySize=auto;html=1;exitX=0.5;exitY=1;exitDx=0;exitDy=0;entryX=0.5;entryY=0;entryDx=0;entryDy=0;endArrow=none;endFill=0;" edge="1" parent="1" source="-NdqAoLyErQ-obfh3Xrd-11" target="-NdqAoLyErQ-obfh3Xrd-39">
          <mxGeometry relative="1" as="geometry" />
        </mxCell>
        <mxCell id="-NdqAoLyErQ-obfh3Xrd-43" style="edgeStyle=none;rounded=0;orthogonalLoop=1;jettySize=auto;html=1;exitX=0.5;exitY=1;exitDx=0;exitDy=0;entryX=0.5;entryY=0;entryDx=0;entryDy=0;endArrow=none;endFill=0;" edge="1" parent="1" source="-NdqAoLyErQ-obfh3Xrd-11" target="-NdqAoLyErQ-obfh3Xrd-40">
          <mxGeometry relative="1" as="geometry" />
        </mxCell>
        <mxCell id="-NdqAoLyErQ-obfh3Xrd-44" style="edgeStyle=none;rounded=0;orthogonalLoop=1;jettySize=auto;html=1;exitX=0.5;exitY=1;exitDx=0;exitDy=0;entryX=0.5;entryY=0;entryDx=0;entryDy=0;endArrow=none;endFill=0;" edge="1" parent="1" source="-NdqAoLyErQ-obfh3Xrd-11" target="-NdqAoLyErQ-obfh3Xrd-41">
          <mxGeometry relative="1" as="geometry" />
        </mxCell>
        <mxCell id="-NdqAoLyErQ-obfh3Xrd-11" value="idopont" style="ellipse;whiteSpace=wrap;html=1;" vertex="1" parent="1">
          <mxGeometry x="353.5" y="405" width="100" height="60" as="geometry" />
        </mxCell>
        <mxCell id="-NdqAoLyErQ-obfh3Xrd-12" value="helyszin" style="ellipse;whiteSpace=wrap;html=1;" vertex="1" parent="1">
          <mxGeometry x="470" y="405" width="100" height="60" as="geometry" />
        </mxCell>
        <mxCell id="-NdqAoLyErQ-obfh3Xrd-13" value="oktato" style="ellipse;whiteSpace=wrap;html=1;" vertex="1" parent="1">
          <mxGeometry x="590" y="405" width="100" height="60" as="geometry" />
        </mxCell>
        <mxCell id="-NdqAoLyErQ-obfh3Xrd-14" value="szak" style="ellipse;whiteSpace=wrap;html=1;" vertex="1" parent="1">
          <mxGeometry x="700" y="405" width="100" height="60" as="geometry" />
        </mxCell>
        <mxCell id="-NdqAoLyErQ-obfh3Xrd-31" style="edgeStyle=none;rounded=0;orthogonalLoop=1;jettySize=auto;html=1;exitX=0.5;exitY=1;exitDx=0;exitDy=0;entryX=0.5;entryY=0;entryDx=0;entryDy=0;endArrow=none;endFill=0;" edge="1" parent="1" source="-NdqAoLyErQ-obfh3Xrd-23" target="-NdqAoLyErQ-obfh3Xrd-3">
          <mxGeometry relative="1" as="geometry" />
        </mxCell>
        <mxCell id="-NdqAoLyErQ-obfh3Xrd-32" style="edgeStyle=none;rounded=0;orthogonalLoop=1;jettySize=auto;html=1;exitX=0.5;exitY=1;exitDx=0;exitDy=0;entryX=0.5;entryY=0;entryDx=0;entryDy=0;endArrow=none;endFill=0;" edge="1" parent="1" source="-NdqAoLyErQ-obfh3Xrd-23" target="-NdqAoLyErQ-obfh3Xrd-9">
          <mxGeometry relative="1" as="geometry" />
        </mxCell>
        <mxCell id="-NdqAoLyErQ-obfh3Xrd-33" style="edgeStyle=none;rounded=0;orthogonalLoop=1;jettySize=auto;html=1;exitX=0.5;exitY=1;exitDx=0;exitDy=0;entryX=0.5;entryY=0;entryDx=0;entryDy=0;endArrow=none;endFill=0;" edge="1" parent="1" source="-NdqAoLyErQ-obfh3Xrd-23" target="-NdqAoLyErQ-obfh3Xrd-10">
          <mxGeometry relative="1" as="geometry" />
        </mxCell>
        <mxCell id="-NdqAoLyErQ-obfh3Xrd-34" style="edgeStyle=none;rounded=0;orthogonalLoop=1;jettySize=auto;html=1;exitX=0.5;exitY=1;exitDx=0;exitDy=0;entryX=0.5;entryY=0;entryDx=0;entryDy=0;endArrow=none;endFill=0;" edge="1" parent="1" source="-NdqAoLyErQ-obfh3Xrd-23" target="-NdqAoLyErQ-obfh3Xrd-11">
          <mxGeometry relative="1" as="geometry" />
        </mxCell>
        <mxCell id="-NdqAoLyErQ-obfh3Xrd-35" style="edgeStyle=none;rounded=0;orthogonalLoop=1;jettySize=auto;html=1;exitX=0.5;exitY=1;exitDx=0;exitDy=0;entryX=0.5;entryY=0;entryDx=0;entryDy=0;endArrow=none;endFill=0;" edge="1" parent="1" source="-NdqAoLyErQ-obfh3Xrd-23" target="-NdqAoLyErQ-obfh3Xrd-12">
          <mxGeometry relative="1" as="geometry" />
        </mxCell>
        <mxCell id="-NdqAoLyErQ-obfh3Xrd-37" style="edgeStyle=none;rounded=0;orthogonalLoop=1;jettySize=auto;html=1;exitX=0.5;exitY=1;exitDx=0;exitDy=0;entryX=0.5;entryY=0;entryDx=0;entryDy=0;endArrow=none;endFill=0;" edge="1" parent="1" source="-NdqAoLyErQ-obfh3Xrd-23" target="-NdqAoLyErQ-obfh3Xrd-13">
          <mxGeometry relative="1" as="geometry" />
        </mxCell>
        <mxCell id="-NdqAoLyErQ-obfh3Xrd-38" style="edgeStyle=none;rounded=0;orthogonalLoop=1;jettySize=auto;html=1;exitX=0.5;exitY=1;exitDx=0;exitDy=0;entryX=0.5;entryY=0;entryDx=0;entryDy=0;endArrow=none;endFill=0;" edge="1" parent="1" source="-NdqAoLyErQ-obfh3Xrd-23" target="-NdqAoLyErQ-obfh3Xrd-14">
          <mxGeometry relative="1" as="geometry" />
        </mxCell>
        <mxCell id="-NdqAoLyErQ-obfh3Xrd-23" value="ora" style="rounded=0;whiteSpace=wrap;html=1;" vertex="1" parent="1">
          <mxGeometry x="344" y="245" width="120" height="60" as="geometry" />
        </mxCell>
        <mxCell id="-NdqAoLyErQ-obfh3Xrd-28" style="edgeStyle=orthogonalEdgeStyle;rounded=0;orthogonalLoop=1;jettySize=auto;html=1;exitX=0.5;exitY=1;exitDx=0;exitDy=0;entryX=0.5;entryY=0;entryDx=0;entryDy=0;endArrow=doubleBlock;endFill=1;" edge="1" parent="1" source="-NdqAoLyErQ-obfh3Xrd-26" target="-NdqAoLyErQ-obfh3Xrd-23">
          <mxGeometry relative="1" as="geometry" />
        </mxCell>
        <mxCell id="-NdqAoLyErQ-obfh3Xrd-45" style="edgeStyle=none;rounded=0;orthogonalLoop=1;jettySize=auto;html=1;exitX=0.5;exitY=0;exitDx=0;exitDy=0;entryX=0.5;entryY=1;entryDx=0;entryDy=0;" edge="1" parent="1" source="-NdqAoLyErQ-obfh3Xrd-26" target="-NdqAoLyErQ-obfh3Xrd-1">
          <mxGeometry relative="1" as="geometry" />
        </mxCell>
        <mxCell id="-NdqAoLyErQ-obfh3Xrd-26" value="" style="rhombus;whiteSpace=wrap;html=1;" vertex="1" parent="1">
          <mxGeometry x="363.5" y="130" width="80" height="80" as="geometry" />
        </mxCell>
        <mxCell id="-NdqAoLyErQ-obfh3Xrd-39" value="nap" style="ellipse;whiteSpace=wrap;html=1;" vertex="1" parent="1">
          <mxGeometry x="230" y="540" width="100" height="60" as="geometry" />
        </mxCell>
        <mxCell id="-NdqAoLyErQ-obfh3Xrd-40" value="tol" style="ellipse;whiteSpace=wrap;html=1;" vertex="1" parent="1">
          <mxGeometry x="353.5" y="540" width="100" height="60" as="geometry" />
        </mxCell>
        <mxCell id="-NdqAoLyErQ-obfh3Xrd-41" value="ig" style="ellipse;whiteSpace=wrap;html=1;" vertex="1" parent="1">
          <mxGeometry x="470" y="540" width="100" height="60" as="geometry" />
        </mxCell>
      </root>
    </mxGraphModel>
  </diagram>
</mxfile>
